<?xml version="1.0" encoding="utf-8"?>
<!-- Generator: Adobe Illustrator 26.5.0, SVG Export Plug-In . SVG Version: 6.00 Build 0)  -->
<svg version="1.1" id="Layer_1" xmlns="http://www.w3.org/2000/svg" xmlns:xlink="http://www.w3.org/1999/xlink" x="0px" y="0px"
	 viewBox="0 0 388.2 106.3" style="enable-background:new 0 0 388.2 106.3;" xml:space="preserve">
<style type="text/css">
	.st0{fill:#CD1B69;}
	.st1{fill:#164C9B;}
	.st2{enable-background:new    ;}
</style>
<g id="BACKGROUND">
</g>
<g id="DESIGNED_BY_FREEPIK">
</g>
<g>
	<path class="st0" d="M70.4,71.4L80,92c-0.9,0.5-1.8,0.9-2.6,1.4c-0.9,0.4-1.8,0.8-2.7,1.2L65,74L51.3,44.7L16,61.1
		c-0.3-2.1-0.5-4.2-0.5-6.3l72-33.6c1.6,1.4,3.1,2.8,4.4,4.5L56.7,42.2L70.4,71.4z"/>
	<g>
		<path class="st0" d="M47.8,54.6l10.1,21.6l0.1,0.2l15.1,18.5c0.5-0.1,1-0.2,1.5-0.3L59.3,75.8L48.5,52.6"/>
		<path class="st1" d="M48.5,52.6L23,64.5c-0.9-1.1-2.4-1.5-3.7-0.9c-0.8,0.4-1.4,1.1-1.6,1.9c-0.2,0.7-0.2,1.5,0.2,2.2
			c0.7,1.6,2.6,2.2,4.2,1.5c0.1-0.1,0.2-0.1,0.3-0.2c1.2-0.7,1.7-2,1.5-3.3l24.1-11.2L48.5,52.6z M21.2,67.9
			c-0.2,0.1-0.4,0.1-0.5,0.2c-0.7,0.1-1.3-0.3-1.6-0.9C19,67,19,66.9,19,66.7c-0.1-0.7,0.2-1.4,0.9-1.8c0.8-0.4,1.8,0,2.2,0.8
			C22.4,66.5,22.1,67.5,21.2,67.9z"/>
	</g>
	<path class="st1" d="M80.7,17c-0.7-1.6-2.6-2.2-4.2-1.5c-1.3,0.6-2,2.1-1.8,3.5L21.9,43.6c-0.9-1.1-2.4-1.5-3.7-0.9
		c-1.6,0.7-2.2,2.6-1.5,4.2c0.7,1.6,2.6,2.2,4.2,1.5c1.3-0.6,2-2.1,1.8-3.5l52.9-24.6c0.9,1.1,2.4,1.5,3.7,0.9
		C80.7,20.5,81.4,18.6,80.7,17z M20.2,47c-0.8,0.4-1.8,0-2.2-0.8c-0.4-0.8,0-1.8,0.8-2.2c0.8-0.4,1.8,0,2.2,0.8
		C21.4,45.7,21,46.7,20.2,47z M78.5,19.8c-0.8,0.4-1.8,0-2.2-0.8c-0.4-0.8,0-1.8,0.8-2.2c0.8-0.4,1.8,0,2.2,0.8
		C79.7,18.5,79.4,19.4,78.5,19.8z"/>
	<path class="st1" d="M67.1,12.7c-0.7-1.6-2.6-2.2-4.2-1.5c-1.3,0.6-2,2.1-1.8,3.5L27.3,30.4c-0.9-1.1-2.4-1.5-3.7-0.9
		c-1.6,0.7-2.2,2.6-1.5,4.2c0.7,1.6,2.6,2.2,4.2,1.5c1.3-0.6,2-2.1,1.8-3.5L61.9,16c0.9,1.1,2.4,1.5,3.7,0.9
		C67.1,16.1,67.9,14.2,67.1,12.7z M25.6,33.8c-0.8,0.4-1.8,0-2.2-0.8c-0.4-0.8,0-1.8,0.8-2.2c0.8-0.4,1.8,0,2.2,0.8
		C26.8,32.5,26.4,33.5,25.6,33.8z M65,15.5c-0.8,0.4-1.8,0-2.2-0.8c-0.4-0.8,0-1.8,0.8-2.2s1.8,0,2.2,0.8
		C66.2,14.1,65.8,15.1,65,15.5z"/>
	<path class="st1" d="M49.2,77.2l-5.5-11.8l-15.5,7.2L27,73.2c-0.9-1.1-2.4-1.5-3.7-0.9c-1.5,0.7-2.2,2.6-1.5,4.2s2.6,2.2,4.2,1.5
		c1.3-0.6,2-2.1,1.8-3.5l2.4-1.1l13-6.1l4.5,9.8L57,97.4c0.5,0.1,1.1,0.1,1.6,0.1L49.2,77.2z M25.3,76.7c-0.8,0.4-1.8,0-2.2-0.8
		c-0.4-0.8,0-1.8,0.8-2.2c0.8-0.4,1.8,0,2.2,0.8C26.5,75.3,26.1,76.3,25.3,76.7z"/>
	<path class="st1" d="M100.1,40c-0.7-1.6-2.6-2.2-4.2-1.5c-1.3,0.6-2,2.1-1.8,3.5l-1.7,0.8l-15,7l5.4,11.6l9.5,20.5
		c0.3-0.4,0.7-0.9,1-1.3L83.9,60l-4.4-9.6l12.5-5.9l2.8-1.3c0.9,1.1,2.4,1.5,3.7,0.9C100.1,43.4,100.8,41.6,100.1,40z M97.9,42.8
		c-0.8,0.4-1.8,0-2.2-0.8c-0.4-0.8,0-1.8,0.8-2.2c0.8-0.4,1.8,0,2.2,0.8C99.1,41.4,98.7,42.4,97.9,42.8z"/>
	<path class="st1" d="M102,49.7c-0.7-1.6-2.6-2.2-4.2-1.5c-1.3,0.6-2,2.1-1.8,3.5l-5.8,2.7L98.5,72c0.3-0.6,0.5-1.2,0.8-1.9l-7-15
		l4.5-2.1c0.9,1.1,2.4,1.5,3.7,0.9C102.1,53.2,102.7,51.3,102,49.7z M99.9,52.6c-0.8,0.4-1.8,0-2.2-0.8c-0.4-0.8,0-1.8,0.8-2.2
		c0.8-0.4,1.8,0,2.2,0.8C101,51.2,100.7,52.2,99.9,52.6z"/>
	<path class="st1" d="M39.1,78.3L33.3,81c-0.9-1.1-2.4-1.5-3.7-0.9c-1.6,0.7-2.2,2.6-1.5,4.2c0.7,1.6,2.6,2.2,4.2,1.5
		c1.3-0.6,2-2.1,1.8-3.5l4.5-2.1l7,15c0.7,0.2,1.3,0.4,1.9,0.6L39.1,78.3z M31.5,84.4c-0.8,0.4-1.8,0-2.2-0.8
		c-0.4-0.8,0-1.8,0.8-2.2c0.8-0.4,1.8,0,2.2,0.8C32.7,83.1,32.4,84,31.5,84.4z"/>
	<g>
		<path class="st0" d="M64.6,45l10.8,23.2L80,92c0.4-0.3,0.8-0.6,1.2-0.9l-4.4-23.4l0-0.2L66.6,45.8"/>
		<path class="st1" d="M66.6,45.8l24.1-11.2c0.8,1,2.2,1.4,3.5,1c0.1,0,0.2-0.1,0.3-0.1c1.6-0.8,2.3-2.6,1.5-4.2
			c-0.4-0.7-0.9-1.3-1.6-1.6c-0.8-0.4-1.7-0.4-2.5,0c-1.3,0.6-2,2-1.7,3.4L64.6,45L66.6,45.8z M91.6,33.3c-0.3-0.8,0-1.8,0.8-2.2
			c0.7-0.3,1.5-0.1,1.9,0.4c0.1,0.1,0.2,0.2,0.3,0.4c0.3,0.6,0.2,1.3-0.3,1.8c-0.1,0.1-0.3,0.3-0.5,0.3
			C93.1,34.4,92.1,34.1,91.6,33.3z"/>
	</g>
</g>
<path class="st0" d="M124.8,31.4h-8v-2.1h18.3v2.1h-8V52h-2.4V31.4H124.8z"/>
<path class="st1" d="M142.4,50c-1.9-1-3.2-2.4-4.3-4.2c-1-1.8-1.6-3.7-1.6-5.9c0-2.2,0.5-4.2,1.6-5.9c1-1.8,2.5-3.1,4.3-4.2
	c1.9-1,3.9-1.5,6.1-1.5c2.3,0,4.3,0.5,6,1.5c1.8,1,3.2,2.4,4.3,4.2c1,1.8,1.6,3.7,1.6,5.9c0,2.2-0.5,4.2-1.6,5.9
	c-1,1.8-2.5,3.1-4.3,4.2c-1.8,1-3.9,1.5-6,1.5C146.3,51.5,144.2,51,142.4,50z M153.3,48.2c1.5-0.8,2.6-2,3.4-3.3
	c0.8-1.5,1.2-3,1.2-4.8c0-1.8-0.4-3.3-1.2-4.8c-0.8-1.5-2-2.6-3.4-3.3c-1.5-0.8-3.1-1.2-4.9-1.2s-3.4,0.4-4.9,1.2
	c-1.5,0.8-2.6,2-3.4,3.3c-0.8,1.5-1.2,3-1.2,4.8c0,1.8,0.4,3.3,1.2,4.8c0.8,1.5,2,2.6,3.4,3.3s3.1,1.2,4.9,1.2S151.9,49,153.3,48.2z
	"/>
<path class="st1" d="M169.7,30.7h-8v-2.1H180v2.1h-8v20.6h-2.4V30.7H169.7z"/>
<path class="st1" d="M196.9,45.2h-12.7l-2.7,6h-2.5l10.4-22.7h2.4l10.4,22.7h-2.5L196.9,45.2z M196,43.3l-5.4-12.2l-5.4,12.2H196z"
	/>
<path class="st1" d="M205.7,28.6h2.4v20.6h12.7v2.1h-15.1V28.6z"/>
<path class="st0" d="M264.2,28.6l-7.7,22.7H254l-6.7-19.4l-6.7,19.4h-2.5l-7.7-22.7h2.5l6.6,19.6l6.8-19.6h2.3l6.7,19.7l6.7-19.7
	H264.2z"/>
<path class="st1" d="M268.5,28.6h2.4v22.7h-2.4V28.6z"/>
<path class="st1" d="M279.5,50.7c-1.6-0.5-2.7-1.2-3.5-2.2l0.9-1.9c0.8,0.8,1.9,1.5,3.2,2c1.4,0.5,2.8,0.7,4.3,0.7
	c2.1,0,3.5-0.4,4.6-1.1c1-0.7,1.6-1.7,1.6-2.9c0-0.9-0.3-1.7-0.8-2.2c-0.5-0.5-1.2-0.9-2-1.2c-0.8-0.3-1.9-0.6-3.3-0.9
	c-1.7-0.4-3.1-0.8-4.1-1.2c-0.9-0.4-1.9-1-2.6-1.9s-1-2-1-3.3c0-1.1,0.3-2.2,0.9-3.1c0.6-0.9,1.6-1.7,2.8-2.3
	c1.2-0.5,2.8-0.8,4.7-0.8c1.2,0,2.6,0.2,3.9,0.5c1.2,0.3,2.3,0.8,3.2,1.5l-0.8,1.9c-0.9-0.6-2-1.1-3-1.5c-1-0.3-2.2-0.5-3.2-0.5
	c-2,0-3.5,0.4-4.5,1.1c-1,0.7-1.6,1.8-1.6,3c0,0.9,0.3,1.7,0.8,2.2c0.5,0.5,1.2,0.9,2.1,1.2c0.8,0.3,2,0.6,3.3,0.9
	c1.7,0.4,3,0.8,4.1,1.2c1,0.4,1.9,1,2.6,1.8s1,1.9,1,3.3c0,1.1-0.3,2.2-0.9,3.1c-0.6,0.9-1.6,1.7-2.8,2.3c-1.2,0.5-2.8,0.8-4.7,0.8
	C282.6,51.5,281.1,51.3,279.5,50.7z"/>
<path class="st1" d="M297.8,28.6h9.3c2.4,0,4.5,0.5,6.4,1.5c1.9,0.9,3.2,2.3,4.3,4.1c1,1.8,1.6,3.6,1.6,5.9c0,2.2-0.5,4.2-1.6,5.9
	c-1,1.8-2.4,3-4.3,4.1c-1.9,0.9-4,1.5-6.4,1.5h-9.3V28.6z M307,49.2c2,0,3.7-0.4,5.2-1.1c1.5-0.8,2.6-1.9,3.4-3.2
	c0.8-1.4,1.2-3,1.2-4.8c0-1.8-0.4-3.4-1.2-4.8c-0.8-1.4-2-2.5-3.4-3.2c-1.5-0.8-3.2-1.1-5.2-1.1h-6.8v18.5h6.8V49.2z"/>
<path class="st1" d="M328.3,50c-1.9-1-3.2-2.4-4.3-4.2c-1-1.8-1.6-3.7-1.6-5.9c0-2.2,0.5-4.2,1.6-5.9c1-1.8,2.5-3.1,4.3-4.2
	c1.9-1,3.9-1.5,6.1-1.5s4.3,0.5,6,1.5c1.8,0.9,3.2,2.4,4.3,4.2c1,1.8,1.6,3.7,1.6,5.9c0,2.2-0.5,4.2-1.6,5.9c-1,1.8-2.5,3.1-4.3,4.2
	s-3.9,1.5-6,1.5S330.1,51,328.3,50z M339.3,48.2c1.5-0.8,2.6-2,3.4-3.3c0.8-1.4,1.2-3,1.2-4.8c0-1.8-0.4-3.3-1.2-4.8
	c-0.8-1.5-2-2.6-3.4-3.3c-1.5-0.7-3.1-1.2-4.9-1.2s-3.4,0.4-4.9,1.2c-1.5,0.8-2.6,2-3.4,3.3c-0.8,1.5-1.2,3-1.2,4.8
	c0,1.8,0.4,3.3,1.2,4.8c0.8,1.5,2,2.6,3.4,3.3c1.5,0.8,3.1,1.2,4.9,1.2C336.3,49.4,337.9,49,339.3,48.2z"/>
<path class="st1" d="M375.2,28.6v22.7h-2.3V33.1l-9,15.3h-1.1l-9-15.2v18.1h-2.3V28.6h2l9.9,16.9l9.8-16.9H375.2z"/>
<g class="st2">
	<path class="st1" d="M118.9,75.5c-0.8-0.3-1.4-0.6-1.8-1.1l0.5-0.9c0.4,0.4,1,0.8,1.7,1c0.7,0.3,1.4,0.4,2.1,0.4
		c1,0,1.8-0.2,2.3-0.6c0.5-0.4,0.8-0.9,0.8-1.5c0-0.5-0.1-0.8-0.4-1.1c-0.3-0.3-0.6-0.5-1-0.6c-0.4-0.1-1-0.3-1.7-0.5
		c-0.9-0.2-1.5-0.4-2.1-0.6c-0.5-0.2-1-0.5-1.3-0.9c-0.4-0.4-0.5-1-0.5-1.7c0-0.6,0.2-1.1,0.5-1.6s0.8-0.9,1.4-1.1
		c0.6-0.3,1.4-0.4,2.4-0.4c0.7,0,1.3,0.1,1.9,0.3c0.6,0.2,1.2,0.4,1.6,0.7l-0.4,1c-0.5-0.3-1-0.6-1.5-0.7s-1.1-0.2-1.6-0.2
		c-1,0-1.8,0.2-2.3,0.6c-0.5,0.4-0.8,0.9-0.8,1.5c0,0.5,0.1,0.8,0.4,1.1c0.3,0.3,0.6,0.5,1,0.6s1,0.3,1.7,0.5c0.8,0.2,1.5,0.4,2,0.6
		c0.5,0.2,1,0.5,1.3,0.9c0.4,0.4,0.5,1,0.5,1.7c0,0.6-0.2,1.1-0.5,1.6c-0.3,0.5-0.8,0.9-1.4,1.1c-0.6,0.3-1.4,0.4-2.4,0.4
		C120.5,75.9,119.7,75.8,118.9,75.5z"/>
	<path class="st1" d="M140.1,64.4v11.5H139v-9.2l-4.5,7.7h-0.6l-4.5-7.7v9.1h-1.2V64.4h1l5,8.5l4.9-8.5H140.1z"/>
	<path class="st1" d="M151,72.8h-6.4l-1.4,3.1H142l5.2-11.5h1.2l5.2,11.5h-1.3L151,72.8z M150.6,71.8l-2.7-6.2l-2.7,6.2H150.6z"/>
	<path class="st1" d="M163.4,75.8l-2.6-3.7c-0.3,0-0.6,0-0.9,0h-3.1v3.6h-1.2V64.4h4.3c1.5,0,2.6,0.3,3.4,1c0.8,0.7,1.2,1.7,1.2,2.9
		c0,0.9-0.2,1.7-0.7,2.3c-0.5,0.6-1.1,1.1-1.9,1.3l2.8,3.9H163.4z M162.4,70.4c0.6-0.5,0.9-1.2,0.9-2.1c0-0.9-0.3-1.6-0.9-2.1
		s-1.5-0.7-2.6-0.7h-3v5.7h3C161,71.2,161.8,70.9,162.4,70.4z"/>
	<path class="st1" d="M169.6,65.4h-4v-1h9.3v1h-4v10.4h-1.2V65.4z"/>
	<path class="st1" d="M181.8,75.5c-0.8-0.3-1.4-0.6-1.8-1.1l0.5-0.9c0.4,0.4,1,0.8,1.7,1c0.7,0.3,1.4,0.4,2.1,0.4
		c1,0,1.8-0.2,2.3-0.6c0.5-0.4,0.8-0.9,0.8-1.5c0-0.5-0.1-0.8-0.4-1.1c-0.3-0.3-0.6-0.5-1-0.6c-0.4-0.1-1-0.3-1.7-0.5
		c-0.9-0.2-1.5-0.4-2.1-0.6c-0.5-0.2-1-0.5-1.3-0.9c-0.4-0.4-0.5-1-0.5-1.7c0-0.6,0.2-1.1,0.5-1.6s0.8-0.9,1.4-1.1
		c0.6-0.3,1.4-0.4,2.4-0.4c0.7,0,1.3,0.1,1.9,0.3c0.6,0.2,1.2,0.4,1.6,0.7l-0.4,1c-0.5-0.3-1-0.6-1.5-0.7s-1.1-0.2-1.6-0.2
		c-1,0-1.8,0.2-2.3,0.6c-0.5,0.4-0.8,0.9-0.8,1.5c0,0.5,0.1,0.8,0.4,1.1c0.3,0.3,0.6,0.5,1,0.6s1,0.3,1.7,0.5c0.8,0.2,1.5,0.4,2,0.6
		c0.5,0.2,1,0.5,1.3,0.9c0.4,0.4,0.5,1,0.5,1.7c0,0.6-0.2,1.1-0.5,1.6c-0.3,0.5-0.8,0.9-1.4,1.1c-0.6,0.3-1.4,0.4-2.4,0.4
		C183.4,75.9,182.6,75.8,181.8,75.5z"/>
	<path class="st1" d="M193.1,75.2c-0.9-0.5-1.6-1.2-2.2-2.1c-0.5-0.9-0.8-1.9-0.8-3s0.3-2.1,0.8-3c0.5-0.9,1.2-1.6,2.2-2.1
		c0.9-0.5,1.9-0.8,3.1-0.8s2.2,0.3,3.1,0.8c0.9,0.5,1.6,1.2,2.2,2.1s0.8,1.9,0.8,3s-0.3,2.1-0.8,3s-1.2,1.6-2.2,2.1
		c-0.9,0.5-1.9,0.8-3.1,0.8S194,75.7,193.1,75.2z M198.6,74.2c0.7-0.4,1.3-1,1.7-1.7c0.4-0.7,0.6-1.5,0.6-2.4s-0.2-1.7-0.6-2.4
		c-0.4-0.7-1-1.3-1.7-1.7s-1.5-0.6-2.5-0.6c-0.9,0-1.7,0.2-2.5,0.6c-0.7,0.4-1.3,1-1.7,1.7c-0.4,0.7-0.6,1.5-0.6,2.4
		s0.2,1.7,0.6,2.4c0.4,0.7,1,1.3,1.7,1.7c0.7,0.4,1.6,0.6,2.5,0.6C197,74.9,197.9,74.7,198.6,74.2z"/>
	<path class="st1" d="M204.9,64.4h1.2v10.4h6.4v1h-7.6V64.4z"/>
	<path class="st1" d="M215.6,74.7c-0.8-0.9-1.2-2.1-1.2-3.7v-6.6h1.2v6.5c0,1.3,0.3,2.3,0.9,3s1.5,1,2.6,1c1.1,0,2-0.3,2.6-1
		s0.9-1.6,0.9-3v-6.5h1.2V71c0,1.6-0.4,2.9-1.2,3.7c-0.8,0.9-2,1.3-3.5,1.3C217.6,75.9,216.5,75.5,215.6,74.7z"/>
	<path class="st1" d="M229.7,65.4h-4v-1h9.3v1h-4v10.4h-1.2V65.4z"/>
	<path class="st1" d="M236.8,64.4h1.2v11.5h-1.2V64.4z"/>
	<path class="st1" d="M243.7,75.2c-0.9-0.5-1.6-1.2-2.2-2.1c-0.5-0.9-0.8-1.9-0.8-3s0.3-2.1,0.8-3c0.5-0.9,1.2-1.6,2.2-2.1
		c0.9-0.5,1.9-0.8,3.1-0.8c1.1,0,2.2,0.3,3.1,0.8c0.9,0.5,1.6,1.2,2.2,2.1c0.5,0.9,0.8,1.9,0.8,3s-0.3,2.1-0.8,3
		c-0.5,0.9-1.2,1.6-2.2,2.1c-0.9,0.5-1.9,0.8-3.1,0.8C245.7,75.9,244.6,75.7,243.7,75.2z M249.2,74.2c0.7-0.4,1.3-1,1.7-1.7
		c0.4-0.7,0.6-1.5,0.6-2.4s-0.2-1.7-0.6-2.4c-0.4-0.7-1-1.3-1.7-1.7s-1.5-0.6-2.5-0.6s-1.7,0.2-2.5,0.6c-0.7,0.4-1.3,1-1.7,1.7
		c-0.4,0.7-0.6,1.5-0.6,2.4s0.2,1.7,0.6,2.4c0.4,0.7,1,1.3,1.7,1.7c0.7,0.4,1.6,0.6,2.5,0.6S248.5,74.7,249.2,74.2z"/>
	<path class="st1" d="M265.1,64.4v11.5h-1l-7.4-9.3v9.3h-1.2V64.4h1l7.4,9.3v-9.3H265.1z"/>
	<path class="st1" d="M269.5,75.5c-0.8-0.3-1.4-0.6-1.8-1.1l0.5-0.9c0.4,0.4,1,0.8,1.7,1c0.7,0.3,1.4,0.4,2.1,0.4
		c1,0,1.8-0.2,2.3-0.6c0.5-0.4,0.8-0.9,0.8-1.5c0-0.5-0.1-0.8-0.4-1.1s-0.6-0.5-1-0.6c-0.4-0.1-1-0.3-1.7-0.5
		c-0.9-0.2-1.5-0.4-2.1-0.6c-0.5-0.2-1-0.5-1.3-0.9c-0.4-0.4-0.5-1-0.5-1.7c0-0.6,0.2-1.1,0.5-1.6s0.8-0.9,1.4-1.1
		c0.6-0.3,1.4-0.4,2.4-0.4c0.7,0,1.3,0.1,1.9,0.3c0.6,0.2,1.2,0.4,1.6,0.7l-0.4,1c-0.5-0.3-1-0.6-1.5-0.7c-0.5-0.2-1.1-0.2-1.6-0.2
		c-1,0-1.8,0.2-2.3,0.6c-0.5,0.4-0.8,0.9-0.8,1.5c0,0.5,0.1,0.8,0.4,1.1s0.6,0.5,1,0.6s1,0.3,1.7,0.5c0.8,0.2,1.5,0.4,2,0.6
		c0.5,0.2,1,0.5,1.3,0.9c0.4,0.4,0.5,1,0.5,1.7c0,0.6-0.2,1.1-0.5,1.6c-0.3,0.5-0.8,0.9-1.4,1.1c-0.6,0.3-1.4,0.4-2.4,0.4
		C271.1,75.9,270.3,75.8,269.5,75.5z"/>
	<path class="st1" d="M284.4,65.4v4.5h5.9v1h-5.9v4.9h-1.2V64.4h7.9v1H284.4z"/>
	<path class="st1" d="M295.4,75.2c-0.9-0.5-1.6-1.2-2.2-2.1c-0.5-0.9-0.8-1.9-0.8-3s0.3-2.1,0.8-3c0.5-0.9,1.2-1.6,2.2-2.1
		c0.9-0.5,1.9-0.8,3.1-0.8c1.1,0,2.2,0.3,3.1,0.8c0.9,0.5,1.6,1.2,2.2,2.1c0.5,0.9,0.8,1.9,0.8,3s-0.3,2.1-0.8,3
		c-0.5,0.9-1.2,1.6-2.2,2.1c-0.9,0.5-1.9,0.8-3.1,0.8C297.4,75.9,296.4,75.7,295.4,75.2z M301,74.2c0.7-0.4,1.3-1,1.7-1.7
		c0.4-0.7,0.6-1.5,0.6-2.4s-0.2-1.7-0.6-2.4c-0.4-0.7-1-1.3-1.7-1.7s-1.5-0.6-2.5-0.6s-1.7,0.2-2.5,0.6c-0.7,0.4-1.3,1-1.7,1.7
		c-0.4,0.7-0.6,1.5-0.6,2.4s0.2,1.7,0.6,2.4c0.4,0.7,1,1.3,1.7,1.7c0.7,0.4,1.6,0.6,2.5,0.6S300.2,74.7,301,74.2z"/>
	<path class="st1" d="M315.1,75.8l-2.6-3.7c-0.3,0-0.6,0-0.9,0h-3.1v3.6h-1.2V64.4h4.3c1.5,0,2.6,0.3,3.4,1c0.8,0.7,1.2,1.7,1.2,2.9
		c0,0.9-0.2,1.7-0.7,2.3c-0.5,0.6-1.1,1.1-1.9,1.3l2.8,3.9H315.1z M314.1,70.4c0.6-0.5,0.9-1.2,0.9-2.1c0-0.9-0.3-1.6-0.9-2.1
		c-0.6-0.5-1.5-0.7-2.6-0.7h-3v5.7h3C312.6,71.2,313.5,70.9,314.1,70.4z"/>
	<path class="st1" d="M323.3,64.4h1.2v11.5h-1.2V64.4z"/>
	<path class="st1" d="M330.5,65.4h-4v-1h9.3v1h-4v10.4h-1.2V65.4z"/>
	<path class="st1" d="M350.2,76l-1.6-1.6c-1,1-2.2,1.6-3.8,1.6c-0.7,0-1.4-0.1-2-0.4c-0.6-0.2-1-0.6-1.4-1c-0.3-0.4-0.5-0.9-0.5-1.5
		c0-0.7,0.2-1.3,0.7-1.8c0.4-0.5,1.2-1.1,2.2-1.7c-0.5-0.6-0.9-1-1.1-1.4c-0.2-0.4-0.3-0.8-0.3-1.3c0-0.7,0.3-1.3,0.8-1.8
		s1.2-0.7,2.1-0.7c0.8,0,1.5,0.2,1.9,0.6c0.5,0.4,0.7,1,0.7,1.7c0,0.6-0.2,1.1-0.6,1.5s-1,1-2,1.5l3.1,3.2c0.3-0.6,0.6-1.4,0.8-2.2
		l0.9,0.3c-0.2,1-0.5,1.9-1,2.6l1.6,1.7L350.2,76z M347.9,73.7l-3.5-3.5c-0.9,0.5-1.5,1-1.9,1.4c-0.3,0.4-0.5,0.9-0.5,1.4
		c0,0.6,0.3,1.1,0.8,1.5c0.5,0.4,1.2,0.6,2,0.6C346.1,75,347.1,74.5,347.9,73.7z M343.9,65.6c-0.3,0.3-0.5,0.7-0.5,1.1
		c0,0.3,0.1,0.7,0.3,1c0.2,0.3,0.5,0.7,1,1.2c0.8-0.5,1.4-0.9,1.7-1.2c0.3-0.3,0.5-0.7,0.5-1.1c0-0.4-0.1-0.8-0.4-1
		c-0.3-0.3-0.7-0.4-1.2-0.4C344.7,65.2,344.2,65.3,343.9,65.6z"/>
	<path class="st1" d="M359.1,75.2c-0.9-0.5-1.6-1.2-2.2-2.1c-0.5-0.9-0.8-1.9-0.8-3s0.3-2.1,0.8-3c0.5-0.9,1.2-1.6,2.2-2.1
		c0.9-0.5,1.9-0.8,3.1-0.8c1.1,0,2.2,0.3,3.1,0.8c0.9,0.5,1.6,1.2,2.2,2.1c0.5,0.9,0.8,1.9,0.8,3s-0.3,2.1-0.8,3
		c-0.5,0.9-1.2,1.6-2.2,2.1c-0.9,0.5-1.9,0.8-3.1,0.8C361.1,75.9,360,75.7,359.1,75.2z M364.7,74.2c0.7-0.4,1.3-1,1.7-1.7
		c0.4-0.7,0.6-1.5,0.6-2.4s-0.2-1.7-0.6-2.4c-0.4-0.7-1-1.3-1.7-1.7s-1.5-0.6-2.5-0.6s-1.7,0.2-2.5,0.6c-0.7,0.4-1.3,1-1.7,1.7
		c-0.4,0.7-0.6,1.5-0.6,2.4s0.2,1.7,0.6,2.4c0.4,0.7,1,1.3,1.7,1.7c0.7,0.4,1.6,0.6,2.5,0.6S363.9,74.7,364.7,74.2z"/>
	<path class="st1" d="M373.1,65.4h-4v-1h9.3v1h-4v10.4h-1.2V65.4z"/>
</g>
</svg>
